# xmcd CD database file
#
# Track frame offsets:
#	150
#	26925
#	65325
#	86700
#	106125
#	176175
#	199275
#	208187
#	244575
#
# Disc length: 3720 seconds
#
# Revision: 0
# Processed by: cddbd v1.4PL0 Copyright (c) Steve Scherf et al.
# Submitted via: CDex 1.50beta8
#
DISCID=820e8609
DTITLE=Rolf Kühn - Joachim Kühn - Brothers
DYEAR=1996
DGENRE=Jazz
TTITLE0=Lover man
TTITLE1=Express
TTITLE2=Saturday blues
TTITLE3=Walk
TTITLE4=Opal
TTITLE5=What is left
TTITLE6=Love
TTITLE7=Brothers
TTITLE8=Everytime we say goodbye
EXTD=YEAR: 1996
EXTT0=
EXTT1=
EXTT2=
EXTT3=
EXTT4=
EXTT5=
EXTT6=
EXTT7=
EXTT8=
PLAYORDER=
